<svg width="1200" height="630" viewBox="0 0 1200 630" fill="none" xmlns="http://www.w3.org/2000/svg">
  <defs>
    <linearGradient id="bg" x1="0" y1="0" x2="1200" y2="630" gradientUnits="userSpaceOnUse">
      <stop stop-color="#0f172a"/>
      <stop offset="0.5" stop-color="#1e1b4b"/>
      <stop offset="1" stop-color="#0f172a"/>
    </linearGradient>
    <linearGradient id="accent" x1="0" y1="0" x2="100%" y2="100%">
      <stop stop-color="#818cf8"/>
      <stop offset="1" stop-color="#a855f7"/>
    </linearGradient>
    <linearGradient id="iconBg" x1="0" y1="0" x2="100%" y2="100%">
      <stop stop-color="#6366f1"/>
      <stop offset="1" stop-color="#a855f7"/>
    </linearGradient>
  </defs>

  <!-- Background -->
  <rect width="1200" height="630" fill="url(#bg)"/>

  <!-- Subtle grid pattern -->
  <g opacity="0.04">
    <line x1="0" y1="0" x2="0" y2="630" stroke="white" stroke-width="1" transform="translate(100,0)"/>
    <line x1="0" y1="0" x2="0" y2="630" stroke="white" stroke-width="1" transform="translate(200,0)"/>
    <line x1="0" y1="0" x2="0" y2="630" stroke="white" stroke-width="1" transform="translate(300,0)"/>
    <line x1="0" y1="0" x2="0" y2="630" stroke="white" stroke-width="1" transform="translate(400,0)"/>
    <line x1="0" y1="0" x2="0" y2="630" stroke="white" stroke-width="1" transform="translate(500,0)"/>
    <line x1="0" y1="0" x2="0" y2="630" stroke="white" stroke-width="1" transform="translate(600,0)"/>
    <line x1="0" y1="0" x2="0" y2="630" stroke="white" stroke-width="1" transform="translate(700,0)"/>
    <line x1="0" y1="0" x2="0" y2="630" stroke="white" stroke-width="1" transform="translate(800,0)"/>
    <line x1="0" y1="0" x2="0" y2="630" stroke="white" stroke-width="1" transform="translate(900,0)"/>
    <line x1="0" y1="0" x2="0" y2="630" stroke="white" stroke-width="1" transform="translate(1000,0)"/>
    <line x1="0" y1="0" x2="0" y2="630" stroke="white" stroke-width="1" transform="translate(1100,0)"/>
    <line x1="0" y1="0" x2="1200" y2="0" stroke="white" stroke-width="1" transform="translate(0,100)"/>
    <line x1="0" y1="0" x2="1200" y2="0" stroke="white" stroke-width="1" transform="translate(0,200)"/>
    <line x1="0" y1="0" x2="1200" y2="0" stroke="white" stroke-width="1" transform="translate(0,300)"/>
    <line x1="0" y1="0" x2="1200" y2="0" stroke="white" stroke-width="1" transform="translate(0,400)"/>
    <line x1="0" y1="0" x2="1200" y2="0" stroke="white" stroke-width="1" transform="translate(0,500)"/>
  </g>

  <!-- Decorative glow circle -->
  <circle cx="900" cy="315" r="250" fill="url(#accent)" opacity="0.06"/>
  <circle cx="300" cy="315" r="200" fill="url(#accent)" opacity="0.04"/>

  <!-- Icon -->
  <g transform="translate(540, 140)">
    <rect width="120" height="120" rx="28" fill="url(#iconBg)"/>
    <g transform="translate(24, 24)">
      <path fill="white" d="M16 58a4 4 0 0 1-3.12-6.5l39.6-40.8a2 2 0 0 1 3.44 1.84l-7.68 24.08A4 4 0 0 0 52 40h28a4 4 0 0 1 3.12 6.5l-39.6 40.8a2 2 0 0 1-3.44-1.84l7.68-24.08A4 4 0 0 0 44 58z" transform="translate(-8,-8) scale(0.85)"/>
    </g>
  </g>

  <!-- Title -->
  <text x="600" y="320" text-anchor="middle" font-family="system-ui, -apple-system, 'Segoe UI', sans-serif" font-weight="900" font-size="72" fill="white" letter-spacing="-2">PDF Toolkit</text>

  <!-- Subtitle -->
  <text x="600" y="375" text-anchor="middle" font-family="system-ui, -apple-system, 'Segoe UI', sans-serif" font-weight="400" font-size="28" fill="#94a3b8">Merge · Split · Reorder · Convert</text>

  <!-- Tagline -->
  <text x="600" y="430" text-anchor="middle" font-family="system-ui, -apple-system, 'Segoe UI', sans-serif" font-weight="500" font-size="20" fill="#6366f1">No Login · Free Forever · 100% Secure</text>

  <!-- Bottom bar -->
  <rect x="0" y="590" width="1200" height="40" fill="url(#accent)" opacity="0.15"/>
  <text x="600" y="616" text-anchor="middle" font-family="system-ui, -apple-system, 'Segoe UI', sans-serif" font-weight="600" font-size="16" fill="#818cf8">pdf-toolkit.vasanthubs.co.in</text>
</svg>
